<?xml version="1.0" encoding="UTF-8"?>
<svg width="500px" height="500px" viewBox="0 0 500 500" version="1.1" xmlns="http://www.w3.org/2000/svg" xmlns:xlink="http://www.w3.org/1999/xlink">
    <title>形状结合</title>
    <defs>
        <radialGradient cx="50%" cy="50%" fx="50%" fy="50%" r="41.0892287%" gradientTransform="translate(0.5, 0.5), scale(1, 0.9999), translate(-0.5, -0.5)" id="radialGradient-1">
            <stop stop-color="#888888" offset="0%"></stop>
            <stop stop-color="#000000" offset="100%"></stop>
        </radialGradient>
    </defs>
    <g id="页面-1" stroke="none" stroke-width="1" fill="none" fill-rule="evenodd">
        <path d="M249.885417,-2.84217094e-14 C387.692709,-2.84217094e-14 499.802084,112.114583 499.802084,249.916667 C499.802084,387.718749 387.692709,499.833333 249.885417,499.833333 C112.098958,499.833333 0,387.723957 0,249.916667 C0,112.109375 112.09375,-2.84217094e-14 249.885417,-2.84217094e-14 Z M404.661458,118.291667 L118.25,404.703124 L123.979166,409.244791 C160.140625,437.895832 203.677084,453.041667 249.885417,453.041667 C361.885417,453.041667 453,361.927083 453.005208,249.927083 C453.005208,203.734375 437.859376,160.187499 409.203125,124.020832 L404.661458,118.291667 Z M249.885417,46.822916 C137.885417,46.822916 46.7708331,137.937499 46.7708331,249.932291 C46.7708331,295.812499 61.7656251,339.171875 90.1354171,375.307291 L94.6718744,381.083333 L381.067709,94.7239573 L375.291666,90.1822907 C339.208333,61.8124987 295.838541,46.822916 249.885417,46.822916 Z M356.651042,193.036457 C401.489584,219.036457 430.786458,252.213541 430.786458,252.213541 C430.786458,252.213541 351.854166,341.755208 254.494792,341.755208 C240.291666,341.755208 226.526042,339.843749 213.34375,336.604165 L236.921874,312.989583 C242.255208,314.458333 247.947917,315.25 253.729166,315.25 C289.161458,315.25 317.854166,286.526041 317.854166,251.119791 C317.854166,245.255208 317.057292,239.593749 315.598958,234.187499 L356.651042,193.036457 Z M254.489584,162.666667 C264.182292,162.666667 273.71875,163.557291 282.994792,165.177083 L260.755208,187.390624 C258.5,187.135416 256.114584,187.005208 253.729166,187.005208 C218.302084,187.005208 189.635417,215.703124 189.635417,251.125 C189.635417,253.510416 189.734376,255.859375 189.989584,258.151041 L142.645833,305.526041 C103.270833,280.708333 78.1354171,252.213541 78.1354171,252.213541 C78.1354171,252.213541 157.09375,162.666667 254.489584,162.666667 Z" id="形状结合" fill="url(#radialGradient-1)"></path>
    </g>
</svg>